<svg width="40" height="40" viewBox="0 0 55 55" fill="none" xmlns="http://www.w3.org/2000/svg">
<path d="M55 27.5C55 27.8581 54.9642 28.2161 54.8926 28.5742C54.821 28.9323 54.6777 29.2725 54.4629 29.5947L42.8076 49.4678C42.4316 50.1123 41.9124 50.6226 41.25 50.9985C40.5876 51.3745 39.8804 51.5625 39.1284 51.5625H15.8716C15.1196 51.5625 14.4124 51.3745 13.75 50.9985C13.0876 50.6226 12.5684 50.1123 12.1924 49.4678L0.537109 29.5947C0.340169 29.2904 0.205892 28.9591 0.134277 28.6011C0.0626628 28.243 0.0179036 27.876 0 27.5C0 27.1419 0.0358073 26.7839 0.107422 26.4258C0.179036 26.0677 0.322266 25.7275 0.537109 25.4053L12.1924 5.53223C12.5684 4.8877 13.0876 4.37744 13.75 4.00146C14.4124 3.62549 15.1196 3.4375 15.8716 3.4375H39.1284C39.8804 3.4375 40.5876 3.62549 41.25 4.00146C41.9124 4.37744 42.4316 4.8877 42.8076 5.53223L54.4629 25.4053C54.6598 25.7096 54.7941 26.0409 54.8657 26.3989C54.9373 26.757 54.9821 27.124 55 27.5ZM38.8062 40.6592C38.9494 40.6592 39.0658 40.6055 39.1553 40.498C39.2448 40.3906 39.2985 40.2563 39.3164 40.0952C39.3164 40.0415 39.1642 39.7282 38.8599 39.1553C38.5555 38.5824 38.1795 37.8752 37.7319 37.0337C37.2843 36.1922 36.7741 35.2791 36.2012 34.2944C35.6283 33.3097 35.1091 32.3787 34.6436 31.5015C34.1781 30.6242 33.7394 29.8633 33.3276 29.2188C32.9159 28.5742 32.6831 28.1624 32.6294 27.9834C32.7189 27.8044 32.9517 27.3926 33.3276 26.748C33.7036 26.1035 34.1333 25.3337 34.6167 24.4385C35.1001 23.5433 35.6283 22.6123 36.2012 21.6455C36.7741 20.6787 37.2754 19.7656 37.7051 18.9062C38.1348 18.0469 38.5197 17.3397 38.8599 16.7847C39.2 16.2297 39.3522 15.9074 39.3164 15.8179C39.3164 15.6746 39.2716 15.5493 39.1821 15.4419C39.0926 15.3345 38.9673 15.2808 38.8062 15.2808H34.8047C34.5898 15.2808 34.4377 15.3703 34.3481 15.5493C34.2765 15.6746 34.1243 15.9432 33.8916 16.355C33.6589 16.7668 33.3813 17.2681 33.0591 17.8589C32.7368 18.4497 32.3698 19.1032 31.958 19.8193C31.5462 20.5355 31.1344 21.2606 30.7227 21.9946C30.3109 22.7287 29.917 23.4359 29.541 24.1162C29.165 24.7965 28.8159 25.4142 28.4937 25.9692C28.1714 26.5243 27.9297 26.9718 27.7686 27.312C27.6074 27.6522 27.5179 27.8491 27.5 27.9028C27.5 27.867 27.4105 27.679 27.2314 27.3389C27.0524 26.9987 26.8107 26.5511 26.5063 25.9961C26.202 25.4411 25.8618 24.8234 25.4858 24.1431C25.1099 23.4627 24.707 22.7466 24.2773 21.9946C23.8477 21.2427 23.4448 20.5176 23.0688 19.8193C22.6929 19.1211 22.3258 18.4676 21.9678 17.8589C21.6097 17.2502 21.3232 16.7489 21.1084 16.355C20.8936 15.9611 20.7324 15.6925 20.625 15.5493C20.5355 15.3703 20.3923 15.2808 20.1953 15.2808H16.0864C15.979 15.2808 15.8895 15.3434 15.8179 15.4688C15.7463 15.5941 15.7015 15.7104 15.6836 15.8179C15.6836 15.8716 15.7731 16.0685 15.9521 16.4087C16.1312 16.7489 16.3639 17.1875 16.6504 17.7246C16.9368 18.2617 17.2681 18.8704 17.644 19.5508C18.02 20.2311 18.4049 20.9294 18.7988 21.6455C19.1927 22.3617 19.5866 23.0688 19.9805 23.7671C20.3743 24.4653 20.7324 25.1009 21.0547 25.6738C21.377 26.2467 21.6634 26.7391 21.9141 27.1509C22.1647 27.5627 22.3169 27.8402 22.3706 27.9834C22.2632 28.1624 22.0304 28.5742 21.6724 29.2188C21.3143 29.8633 20.8846 30.6242 20.3833 31.5015C19.882 32.3787 19.3538 33.3097 18.7988 34.2944C18.2438 35.2791 17.7425 36.1922 17.2949 37.0337C16.8473 37.8752 16.4624 38.5824 16.1401 39.1553C15.8179 39.7282 15.6657 40.0415 15.6836 40.0952C15.6836 40.2384 15.7284 40.3638 15.8179 40.4712C15.9074 40.5786 16.0327 40.6413 16.1938 40.6592H20.1953C20.3743 40.6592 20.5176 40.5607 20.625 40.3638C20.7145 40.1847 20.9473 39.764 21.3232 39.1016C21.6992 38.4391 22.1468 37.6603 22.666 36.7651C23.1852 35.87 23.7223 34.9211 24.2773 33.9185C24.8324 32.9159 25.3516 31.9849 25.835 31.1255C26.3184 30.2661 26.7122 29.55 27.0166 28.9771C27.321 28.4041 27.4821 28.0819 27.5 28.0103C27.5 28.064 27.6522 28.3773 27.9565 28.9502C28.2609 29.5231 28.6548 30.2393 29.1382 31.0986C29.6216 31.958 30.1408 32.889 30.6958 33.8916C31.2508 34.8942 31.7879 35.8521 32.3071 36.7651C32.8263 37.6782 33.265 38.457 33.623 39.1016C33.9811 39.7461 34.2228 40.1668 34.3481 40.3638C34.4556 40.5607 34.6077 40.6592 34.8047 40.6592H38.8062Z" fill="white"/>
</svg>
