<svg width="27" height="26" viewBox="0 0 27 26" fill="none" xmlns="http://www.w3.org/2000/svg">
<path d="M13.9638 26C17.4116 26 20.7182 24.6304 23.1562 22.1924C25.5942 19.7544 26.9638 16.4478 26.9638 13C26.9638 9.55219 25.5942 6.24558 23.1562 3.80761C20.7182 1.36964 17.4116 0 13.9638 0C10.516 0 7.20939 1.36964 4.77142 3.80761C2.33345 6.24558 0.963806 9.55219 0.963806 13C0.963806 16.4478 2.33345 19.7544 4.77142 22.1924C7.20939 24.6304 10.516 26 13.9638 26ZM15.4751 10.7055L13.8501 18.3511C13.7363 18.9036 13.8972 19.2173 14.3441 19.2173C14.6593 19.2173 15.1354 19.1035 15.4588 18.8175L15.3158 19.4935C14.8494 20.0557 13.8208 20.4653 12.9352 20.4653C11.7928 20.4653 11.3069 19.7795 11.6222 18.3219L12.8214 12.6864C12.9254 12.2102 12.8312 12.038 12.3551 11.9226L11.6222 11.791L11.7554 11.1719L15.4767 10.7055H15.4751ZM13.9638 8.9375C13.5328 8.9375 13.1195 8.76629 12.8148 8.46155C12.51 8.1568 12.3388 7.74348 12.3388 7.3125C12.3388 6.88152 12.51 6.4682 12.8148 6.16345C13.1195 5.8587 13.5328 5.6875 13.9638 5.6875C14.3948 5.6875 14.8081 5.8587 15.1129 6.16345C15.4176 6.4682 15.5888 6.88152 15.5888 7.3125C15.5888 7.74348 15.4176 8.1568 15.1129 8.46155C14.8081 8.76629 14.3948 8.9375 13.9638 8.9375Z" fill="#3646DA"/>
</svg>
