<svg width="40" height="40" viewBox="0 0 80 80" fill="none" xmlns="http://www.w3.org/2000/svg">
<circle cx="40" cy="40" r="40" fill="#3646DA"/>
<path d="M40 30.367C34.6957 30.367 30.367 34.6957 30.367 40C30.367 45.3043 34.6957 49.633 40 49.633C45.3043 49.633 49.633 45.3043 49.633 40C49.633 34.6957 45.3043 30.367 40 30.367ZM68.8918 40C68.8918 36.0109 68.9279 32.058 68.7039 28.0762C68.4799 23.4512 67.4248 19.3465 64.0428 15.9645C60.6535 12.5752 56.5561 11.5273 51.9311 11.3033C47.942 11.0793 43.9891 11.1154 40.0072 11.1154C36.0182 11.1154 32.0652 11.0793 28.0834 11.3033C23.4584 11.5273 19.3537 12.5824 15.9717 15.9645C12.5824 19.3537 11.5346 23.4512 11.3106 28.0762C11.0865 32.0652 11.1227 36.0182 11.1227 40C11.1227 43.9818 11.0865 47.942 11.3106 51.9238C11.5346 56.5488 12.5897 60.6535 15.9717 64.0355C19.3609 67.4248 23.4584 68.4727 28.0834 68.6967C32.0725 68.9207 36.0254 68.8846 40.0072 68.8846C43.9963 68.8846 47.9492 68.9207 51.9311 68.6967C56.5561 68.4727 60.6607 67.4176 64.0428 64.0355C67.432 60.6463 68.4799 56.5488 68.7039 51.9238C68.9352 47.942 68.8918 43.9891 68.8918 40ZM40 54.8217C31.7979 54.8217 25.1783 48.2021 25.1783 40C25.1783 31.7979 31.7979 25.1783 40 25.1783C48.2022 25.1783 54.8217 31.7979 54.8217 40C54.8217 48.2021 48.2022 54.8217 40 54.8217ZM55.4287 28.0328C53.5137 28.0328 51.9672 26.4863 51.9672 24.5713C51.9672 22.6562 53.5137 21.1098 55.4287 21.1098C57.3438 21.1098 58.8902 22.6562 58.8902 24.5713C58.8908 25.026 58.8017 25.4764 58.6279 25.8966C58.4542 26.3169 58.1992 26.6987 57.8777 27.0202C57.5561 27.3418 57.1743 27.5967 56.7541 27.7705C56.3338 27.9442 55.8834 28.0334 55.4287 28.0328Z" fill="white"/>
</svg>
