<svg xmlns="http://www.w3.org/2000/svg" width="40" height="40" fill="none" viewBox="0 0 80 80">
  <circle cx="40" cy="40" r="40" fill="#3646DA"/>
  <path fill="#fff" d="M40 6.4C21.443 6.4 6.4 21.443 6.4 40c0 18.557 15.043 33.6 33.6 33.6 18.557 0 33.6-15.043 33.6-33.6C73.6 21.443 58.557 6.4 40 6.4Zm-8.225 47.526h-6.804V32.03h6.804v21.896Zm-3.444-24.584c-2.149 0-3.538-1.522-3.538-3.405 0-1.922 1.431-3.399 3.626-3.399 2.194 0 3.538 1.477 3.58 3.399 0 1.883-1.386 3.405-3.668 3.405Zm28.294 24.584h-6.804V41.792c0-2.825-.987-4.743-3.447-4.743-1.88 0-2.997 1.299-3.49 2.548-.182.445-.227 1.075-.227 1.701v12.625h-6.808v-14.91c0-2.734-.087-5.02-.178-6.986h5.911l.312 3.041h.136c.896-1.428 3.09-3.535 6.762-3.535 4.477 0 7.833 3 7.833 9.447v12.946Z"/>
</svg>
