<svg xmlns="http://www.w3.org/2000/svg" version="1.1" xmlns:xlink="http://www.w3.org/1999/xlink" xmlns:svgjs="http://svgjs.com/svgjs" width="1440" height="560" preserveAspectRatio="none" viewBox="0 0 1440 560"><g mask="url(&quot;#SvgjsMask1087&quot;)" fill="none"><rect width="1440" height="560" x="0" y="0" fill="url(#SvgjsLinearGradient1088)"></rect><path d="M799.82 23.43 a140.26 140.26 0 1 0 280.52 0 a140.26 140.26 0 1 0 -280.52 0z" fill="rgba(28, 83, 142, 0.4)" class="triangle-float3"></path><path d="M384.026,99.16C416.468,99.929,448.759,87.247,465.808,59.636C483.693,30.672,485.961,-7.191,467.258,-35.634C449.951,-61.955,415.515,-65.599,384.026,-64.737C354.47,-63.928,323.989,-56.364,308.33,-31.284C291.831,-4.859,293.058,28.967,308.694,55.912C324.27,82.753,353.002,98.425,384.026,99.16" fill="rgba(28, 83, 142, 0.4)" class="triangle-float3"></path><path d="M434.663,436.458C467.681,436.825,496.704,415.934,512.806,387.106C528.501,359.008,527.767,325.381,512.547,297.023C496.388,266.915,468.82,242.455,434.663,241.511C399.046,240.527,365.453,260.925,348.951,292.504C333.482,322.107,342.385,356.701,359.473,385.4C376.085,413.3,402.194,436.097,434.663,436.458" fill="rgba(28, 83, 142, 0.4)" class="triangle-float3"></path><path d="M568.64 94.35 a160.17 160.17 0 1 0 320.34 0 a160.17 160.17 0 1 0 -320.34 0z" fill="rgba(28, 83, 142, 0.4)" class="triangle-float3"></path><path d="M807.58 412.25 a100.41 100.41 0 1 0 200.82 0 a100.41 100.41 0 1 0 -200.82 0z" fill="rgba(28, 83, 142, 0.4)" class="triangle-float3"></path><path d="M66.91 430.04 a178.81 178.81 0 1 0 357.62 0 a178.81 178.81 0 1 0 -357.62 0z" fill="rgba(28, 83, 142, 0.4)" class="triangle-float1"></path><path d="M598.6815546686894 162.04985084762788L571.3785152874752 7.206619984641577 443.8383238057031 189.35289022884206z" fill="rgba(28, 83, 142, 0.4)" class="triangle-float2"></path><path d="M866.37 246.43 a110.84 110.84 0 1 0 221.68 0 a110.84 110.84 0 1 0 -221.68 0z" fill="rgba(28, 83, 142, 0.4)" class="triangle-float2"></path><path d="M1021.37 484.23 a185.52 185.52 0 1 0 371.04 0 a185.52 185.52 0 1 0 -371.04 0z" fill="rgba(28, 83, 142, 0.4)" class="triangle-float1"></path><path d="M469.60013358344753 562.0373960749226L593.9999570723372 506.6510262103503 538.6135872077649 382.2512027214606 414.2137637188752 437.6375725860329z" fill="rgba(28, 83, 142, 0.4)" class="triangle-float3"></path><path d="M464.839486378848 223.66224000589384L534.2138650542795 156.66818125981436 467.21980630819996 87.29380258438289 397.8454276327685 154.28786133046236z" fill="rgba(28, 83, 142, 0.4)" class="triangle-float1"></path><path d="M542.864,400.533C585.733,401.402,621.812,372.342,643.727,335.487C666.215,297.669,678.197,249.873,654.494,212.805C631.975,177.588,584.663,177.307,542.864,177.754C502.178,178.189,456.515,180.432,435.291,215.146C413.454,250.863,427.83,295.329,448.841,331.538C469.752,367.575,501.208,399.689,542.864,400.533" fill="rgba(28, 83, 142, 0.4)" class="triangle-float2"></path><path d="M388.02633337794396 457.1274128491585L315.0751978227154 313.95274781993663 171.90053279349357 386.90388337516515 244.85166834872211 530.078548404387z" fill="rgba(28, 83, 142, 0.4)" class="triangle-float2"></path><path d="M35.3042236608532 99.81177116216124L28.662381329747603 284.9503106462425 172.95582098173188 211.42913094846793z" fill="rgba(28, 83, 142, 0.4)" class="triangle-float1"></path><path d="M1039.23 166.98 a127.24 127.24 0 1 0 254.48 0 a127.24 127.24 0 1 0 -254.48 0z" fill="rgba(28, 83, 142, 0.4)" class="triangle-float3"></path><path d="M484.31618195259364 547.7524027782206L582.0196088922862 450.23502548222365 466.0237431067965 416.9737462011365z" fill="rgba(28, 83, 142, 0.4)" class="triangle-float2"></path><path d="M608.857,252.767C655.201,250.023,686.169,208.93,706.759,167.321C724.713,131.039,724.167,90.771,707.207,54.014C686.332,8.772,658.672,-43.799,608.857,-44.866C558.152,-45.952,526.827,4.906,502.926,49.638C480.805,91.039,466.876,138.618,488.581,180.238C511.784,224.73,558.766,255.733,608.857,252.767" fill="rgba(28, 83, 142, 0.4)" class="triangle-float3"></path><path d="M909.424773448093 188.4084888914017L879.7453681930812 235.90546592239957 965.8305363670839 256.67608528941844z" fill="rgba(28, 83, 142, 0.4)" class="triangle-float1"></path></g><defs><mask id="SvgjsMask1087"><rect width="1440" height="560" fill="#ffffff"></rect></mask><linearGradient x1="15.28%" y1="-39.29%" x2="84.72%" y2="139.29%" gradientUnits="userSpaceOnUse" id="SvgjsLinearGradient1088"><stop stop-color="#0e2a47" offset="0"></stop><stop stop-color="rgba(29, 30, 32, 1)" offset="1"></stop></linearGradient><style>
            @keyframes float1 {
                0%{transform: translate(0, 0)}
                50%{transform: translate(-10px, 0)}
                100%{transform: translate(0, 0)}
            }

            .triangle-float1 {
                animation: float1 5s infinite;
            }

            @keyframes float2 {
                0%{transform: translate(0, 0)}
                50%{transform: translate(-5px, -5px)}
                100%{transform: translate(0, 0)}
            }

            .triangle-float2 {
                animation: float2 4s infinite;
            }

            @keyframes float3 {
                0%{transform: translate(0, 0)}
                50%{transform: translate(0, -10px)}
                100%{transform: translate(0, 0)}
            }

            .triangle-float3 {
                animation: float3 6s infinite;
            }
        </style></defs></svg>