<svg xmlns="http://www.w3.org/2000/svg" width="1280" height="718" fill="none" viewBox="0 0 1280 718">
  <path fill="#1E1F21" d="M0 137h1280v581H0z"/>
  <g clip-path="url(#a)">
    <path fill="#053BC7" d="m936 74.6 32.4 18.7v37.4L936 149.4l-32.4-18.7V93.3L936 74.6ZM185 561l16.5 9.5v19L185 599l-16.5-9.5v-19L185 561Zm351-269 19.9 11.5v23L536 338l-19.9-11.5v-23L536 292Zm-122 96 19.1 11v22L414 432l-19.1-11v-22l19.1-11ZM703 28l19.9 11.5v23L703 74l-19.9-11.5v-23L703 28Zm211 367 30.3 17.5v35L914 465l-30.3-17.5v-35L914 395Zm-94 118 19.1 11v22L820 557l-19.1-11v-22l19.1-11ZM476 191l25.1 14.5v29L476 249l-25.1-14.5v-29L476 191Zm370 96 18.2 10.5v21L846 329l-18.2-10.5v-21L846 287ZM201 392l25.1 14.5v29L201 450l-25.1-14.5v-29L201 392Z"/>
  </g>
  <defs>
    <clipPath id="a">
      <path fill="#fff" d="M0 0h900v600H0z" transform="translate(175)"/>
    </clipPath>
  </defs>
</svg>
