<svg width="1280" height="340" viewBox="0 0 1280 340" fill="none" xmlns="http://www.w3.org/2000/svg">
<g clip-path="url(#clip0_121_54)">
<path d="M-106 8.27997L-72.03 20.6039C-38.06 33.0859 29.88 57.734 97.504 65.95C165.286 74.166 232.594 65.6339 300.376 68.7939C368 71.9539 435.94 86.806 503.564 91.7039C571.346 96.7599 638.654 92.02 706.436 77.01C774.06 62 842 36.7199 909.624 30.8739C977.406 25.1859 1044.71 38.774 1112.5 42.25C1180.12 45.726 1248.06 38.774 1282.03 35.456L1316 31.98V379.58H1282.03C1248.06 379.58 1180.12 379.58 1112.5 379.58C1044.71 379.58 977.406 379.58 909.624 379.58C842 379.58 774.06 379.58 706.436 379.58C638.654 379.58 571.346 379.58 503.564 379.58C435.94 379.58 368 379.58 300.376 379.58C232.594 379.58 165.286 379.58 97.504 379.58C29.88 379.58 -38.06 379.58 -72.03 379.58H-106V8.27997Z" fill="#392CE2"/>
<path d="M-106 123.62L-72.03 130.256C-38.06 136.734 29.88 150.006 97.504 143.054C165.286 136.26 232.594 109.4 300.376 99.92C368 90.44 435.94 98.34 503.564 112.876C571.346 127.254 638.654 148.426 706.436 148.9C774.06 149.374 842 129.466 909.624 116.984C977.406 104.66 1044.71 99.92 1112.5 94.706C1180.12 89.334 1248.06 83.646 1282.03 80.644L1316 77.8V379.58H1282.03C1248.06 379.58 1180.12 379.58 1112.5 379.58C1044.71 379.58 977.406 379.58 909.624 379.58C842 379.58 774.06 379.58 706.436 379.58C638.654 379.58 571.346 379.58 503.564 379.58C435.94 379.58 368 379.58 300.376 379.58C232.594 379.58 165.286 379.58 97.504 379.58C29.88 379.58 -38.06 379.58 -72.03 379.58H-106V123.62Z" fill="#7758E1"/>
<path d="M-106 133.1L-72.03 144.634C-38.06 156.326 29.88 179.394 97.504 192.824C165.286 206.254 232.594 210.046 300.376 204.99C368 199.934 435.94 186.346 503.564 186.504C571.346 186.82 638.654 201.04 706.436 208.15C774.06 215.26 842 215.26 909.624 199.46C977.406 183.66 1044.71 152.06 1112.5 139.894C1180.12 127.886 1248.06 135.154 1282.03 138.946L1316 142.58V379.58H1282.03C1248.06 379.58 1180.12 379.58 1112.5 379.58C1044.71 379.58 977.406 379.58 909.624 379.58C842 379.58 774.06 379.58 706.436 379.58C638.654 379.58 571.346 379.58 503.564 379.58C435.94 379.58 368 379.58 300.376 379.58C232.594 379.58 165.286 379.58 97.504 379.58C29.88 379.58 -38.06 379.58 -72.03 379.58H-106V133.1Z" fill="#9E82E0"/>
<path d="M-106 201.04L-72.03 203.094C-38.06 205.306 29.88 209.414 97.504 215.734C165.286 222.054 232.594 230.586 300.376 236.59C368 242.594 435.94 246.386 503.564 248.756C571.346 251.126 638.654 252.074 706.436 246.386C774.06 240.54 842 227.9 909.624 225.056C977.406 222.054 1044.71 229.006 1112.5 238.486C1180.12 247.966 1248.06 259.974 1282.03 266.136L1316 272.14V379.58H1282.03C1248.06 379.58 1180.12 379.58 1112.5 379.58C1044.71 379.58 977.406 379.58 909.624 379.58C842 379.58 774.06 379.58 706.436 379.58C638.654 379.58 571.346 379.58 503.564 379.58C435.94 379.58 368 379.58 300.376 379.58C232.594 379.58 165.286 379.58 97.504 379.58C29.88 379.58 -38.06 379.58 -72.03 379.58H-106V201.04Z" fill="#BEADDD"/>
<path d="M-106 289.52L-72.03 293.944C-38.06 298.526 29.88 307.374 97.504 307.374C165.286 307.374 232.594 298.526 300.376 292.206C368 285.886 435.94 282.094 503.564 286.834C571.346 291.574 638.654 304.846 706.436 310.376C774.06 315.906 842 313.694 909.624 306.426C977.406 299 1044.71 286.36 1112.5 284.306C1180.12 282.094 1248.06 290.626 1282.03 294.734L1316 299V379.58H1282.03C1248.06 379.58 1180.12 379.58 1112.5 379.58C1044.71 379.58 977.406 379.58 909.624 379.58C842 379.58 774.06 379.58 706.436 379.58C638.654 379.58 571.346 379.58 503.564 379.58C435.94 379.58 368 379.58 300.376 379.58C232.594 379.58 165.286 379.58 97.504 379.58C29.88 379.58 -38.06 379.58 -72.03 379.58H-106V289.52Z" fill="#D9D9D9"/>
</g>
<defs>
<clipPath id="clip0_121_54">
<rect width="1422" height="340" fill="white" transform="translate(-106)"/>
</clipPath>
</defs>
</svg>
